<?xml version="1.0" encoding="UTF-8" standalone="no"?>
<svg
   xmlns:dc="http://purl.org/dc/elements/1.1/"
   xmlns:cc="http://creativecommons.org/ns#"
   xmlns:rdf="http://www.w3.org/1999/02/22-rdf-syntax-ns#"
   xmlns:svg="http://www.w3.org/2000/svg"
   xmlns="http://www.w3.org/2000/svg"
   width="512"
   height="512"
   viewBox="0 0 512 512"
   version="1.1"
   id="svg5235">
  <metadata
     id="metadata5241">
    <rdf:RDF>
      <cc:Work
         rdf:about="">
        <dc:format>image/svg+xml</dc:format>
        <dc:type
           rdf:resource="http://purl.org/dc/dcmitype/StillImage" />
        <dc:title>ionicons-v5-i</dc:title>
      </cc:Work>
    </rdf:RDF>
  </metadata>
  <defs
     id="defs5239" />
  <title
     id="title5221">ionicons-v5-i</title>
  <path
     d="M384,80H128c-26,0-43,14-48,40L48,272V384a48.14,48.14,0,0,0,48,48H416a48.14,48.14,0,0,0,48-48V272L432,120C427,93,409,80,384,80Z"
     style="fill:none;stroke:#000;stroke-linejoin:round;stroke-width:23;stroke-miterlimit:4;stroke-dasharray:none"
     id="path5223" />
  <line
     x1="48"
     y1="272"
     x2="192"
     y2="272"
     style="fill:none;stroke:#000;stroke-linecap:round;stroke-linejoin:round;stroke-width:23;stroke-miterlimit:4;stroke-dasharray:none"
     id="line5225" />
  <line
     x1="320"
     y1="272"
     x2="464"
     y2="272"
     style="fill:none;stroke:#000;stroke-linecap:round;stroke-linejoin:round;stroke-width:23;stroke-miterlimit:4;stroke-dasharray:none"
     id="line5227" />
  <path
     d="M192,272a64,64,0,0,0,128,0"
     style="fill:none;stroke:#000;stroke-linecap:round;stroke-linejoin:round;stroke-width:23;stroke-miterlimit:4;stroke-dasharray:none"
     id="path5229" />
  <line
     x1="144"
     y1="144"
     x2="368"
     y2="144"
     style="fill:none;stroke:#000;stroke-linecap:round;stroke-linejoin:round;stroke-width:23;stroke-miterlimit:4;stroke-dasharray:none"
     id="line5231" />
  <line
     x1="128"
     y1="208"
     x2="384"
     y2="208"
     style="fill:none;stroke:#000;stroke-linecap:round;stroke-linejoin:round;stroke-width:23;stroke-miterlimit:4;stroke-dasharray:none"
     id="line5233" />
</svg>
