<svg width="512" height="512" version="1.1" viewBox="0 0 512 512" xmlns="http://www.w3.org/2000/svg">
 <title>ionicons-v5-i</title>
 <g shape-rendering="auto">
  <path d="m128 68.5c-15.064 0-28.768 4.2169-39.225 12.904-10.457 8.6874-17.184 21.426-20.068 36.424l0.039063-0.19726-32 152a11.501 11.501 0 0 0-0.24609 2.3691v112a11.501 11.501 0 0 0 0 0.0332c0.094871 32.669 26.798 59.372 59.467 59.467a11.501 11.501 0 0 0 0.033203 0h320a11.501 11.501 0 0 0 0.0332 0c32.669-0.09487 59.372-26.798 59.467-59.467a11.501 11.501 0 0 0 0-0.0332v-112a11.501 11.501 0 0 0-0.24609-2.3691l-32-152 0.05468 0.27539c-2.8897-15.605-9.9863-28.469-20.607-36.998s-24.208-12.408-38.701-12.408h-256zm0 23h256c10.507 0 18.42 2.6209 24.299 7.3418s10.282 11.857 12.393 23.252a11.501 11.501 0 0 0 0.05468 0.27539l31.754 150.83v110.77c-0.05891 20.286-16.247 36.474-36.533 36.533h-319.93c-20.286-0.05891-36.474-16.247-36.533-36.533v-110.77l31.754-150.83a11.501 11.501 0 0 0 0.039063-0.19726c2.1158-11.002 6.3887-18.264 12.182-23.076 5.7929-4.8126 13.589-7.5957 24.525-7.5957z" color="#000000" color-rendering="auto" dominant-baseline="auto" image-rendering="auto" solid-color="#000000" stop-color="#000000" style="font-feature-settings:normal;font-variant-alternates:normal;font-variant-caps:normal;font-variant-east-asian:normal;font-variant-ligatures:normal;font-variant-numeric:normal;font-variant-position:normal;font-variation-settings:normal;inline-size:0;isolation:auto;mix-blend-mode:normal;shape-margin:0;shape-padding:0;text-decoration-color:#000000;text-decoration-line:none;text-decoration-style:solid;text-indent:0;text-orientation:mixed;text-transform:none;white-space:normal"/>
  <path d="m48 260.5a11.5 11.5 0 0 0-11.5 11.5 11.5 11.5 0 0 0 11.5 11.5h144a11.5 11.5 0 0 0 11.5-11.5 11.5 11.5 0 0 0-11.5-11.5h-144z" color="#000000" color-rendering="auto" dominant-baseline="auto" image-rendering="auto" solid-color="#000000" stop-color="#000000" style="font-feature-settings:normal;font-variant-alternates:normal;font-variant-caps:normal;font-variant-east-asian:normal;font-variant-ligatures:normal;font-variant-numeric:normal;font-variant-position:normal;font-variation-settings:normal;inline-size:0;isolation:auto;mix-blend-mode:normal;shape-margin:0;shape-padding:0;text-decoration-color:#000000;text-decoration-line:none;text-decoration-style:solid;text-indent:0;text-orientation:mixed;text-transform:none;white-space:normal"/>
  <path d="m320 260.5a11.5 11.5 0 0 0-11.5 11.5 11.5 11.5 0 0 0 11.5 11.5h144a11.5 11.5 0 0 0 11.5-11.5 11.5 11.5 0 0 0-11.5-11.5h-144z" color="#000000" color-rendering="auto" dominant-baseline="auto" image-rendering="auto" solid-color="#000000" stop-color="#000000" style="font-feature-settings:normal;font-variant-alternates:normal;font-variant-caps:normal;font-variant-east-asian:normal;font-variant-ligatures:normal;font-variant-numeric:normal;font-variant-position:normal;font-variation-settings:normal;inline-size:0;isolation:auto;mix-blend-mode:normal;shape-margin:0;shape-padding:0;text-decoration-color:#000000;text-decoration-line:none;text-decoration-style:solid;text-indent:0;text-orientation:mixed;text-transform:none;white-space:normal"/>
  <path d="m192 260.5a11.5 11.5 0 0 0-11.5 11.5c0 41.561 33.939 75.5 75.5 75.5s75.5-33.939 75.5-75.5a11.5 11.5 0 0 0-11.5-11.5 11.5 11.5 0 0 0-11.5 11.5c0 29.131-23.369 52.5-52.5 52.5s-52.5-23.369-52.5-52.5a11.5 11.5 0 0 0-11.5-11.5z" color="#000000" color-rendering="auto" dominant-baseline="auto" image-rendering="auto" solid-color="#000000" stop-color="#000000" style="font-feature-settings:normal;font-variant-alternates:normal;font-variant-caps:normal;font-variant-east-asian:normal;font-variant-ligatures:normal;font-variant-numeric:normal;font-variant-position:normal;font-variation-settings:normal;inline-size:0;isolation:auto;mix-blend-mode:normal;shape-margin:0;shape-padding:0;text-decoration-color:#000000;text-decoration-line:none;text-decoration-style:solid;text-indent:0;text-orientation:mixed;text-transform:none;white-space:normal"/>
  <path d="m144 132.5a11.5 11.5 0 0 0-11.5 11.5 11.5 11.5 0 0 0 11.5 11.5h224a11.5 11.5 0 0 0 11.5-11.5 11.5 11.5 0 0 0-11.5-11.5h-224z" color="#000000" color-rendering="auto" dominant-baseline="auto" image-rendering="auto" solid-color="#000000" stop-color="#000000" style="font-feature-settings:normal;font-variant-alternates:normal;font-variant-caps:normal;font-variant-east-asian:normal;font-variant-ligatures:normal;font-variant-numeric:normal;font-variant-position:normal;font-variation-settings:normal;inline-size:0;isolation:auto;mix-blend-mode:normal;shape-margin:0;shape-padding:0;text-decoration-color:#000000;text-decoration-line:none;text-decoration-style:solid;text-indent:0;text-orientation:mixed;text-transform:none;white-space:normal"/>
  <path d="m128 196.5a11.5 11.5 0 0 0-11.5 11.5 11.5 11.5 0 0 0 11.5 11.5h256a11.5 11.5 0 0 0 11.5-11.5 11.5 11.5 0 0 0-11.5-11.5h-256z" color="#000000" color-rendering="auto" dominant-baseline="auto" image-rendering="auto" solid-color="#000000" stop-color="#000000" style="font-feature-settings:normal;font-variant-alternates:normal;font-variant-caps:normal;font-variant-east-asian:normal;font-variant-ligatures:normal;font-variant-numeric:normal;font-variant-position:normal;font-variation-settings:normal;inline-size:0;isolation:auto;mix-blend-mode:normal;shape-margin:0;shape-padding:0;text-decoration-color:#000000;text-decoration-line:none;text-decoration-style:solid;text-indent:0;text-orientation:mixed;text-transform:none;white-space:normal"/>
 </g>
</svg>
