<svg width="512" height="512" version="1.1" viewBox="0 0 512 512" xmlns="http://www.w3.org/2000/svg">
 <g shape-rendering="auto">
  <path d="m128 64c-15.872 0-30.73 4.4978-42.1 13.943-11.37 9.4456-18.579 23.256-21.613 39.035l0.056641-0.2754-32 152a16.002 16.002 0 0 0-0.34375 3.2969v112a16.002 16.002 0 0 0 0 0.04688c0.10191 35.092 28.861 63.851 63.953 63.953a16.002 16.002 0 0 0 0.046875 0h320a16.002 16.002 0 0 0 0.04688 0c35.092-0.10191 63.851-28.861 63.953-63.953a16.002 16.002 0 0 0 0-0.04688v-112a16.002 16.002 0 0 0-0.34375-3.2969l-32-152 0.07617 0.38282c-3.0422-16.428-10.666-30.411-22.215-39.686-11.549-9.2741-26.244-13.4-41.518-13.4h-256zm0 32h256c9.7267 0 16.531 2.3737 21.482 6.3496 4.9511 3.9759 8.8274 9.9926 10.785 20.564a16.002 16.002 0 0 0 0.07617 0.38282l31.656 150.37v110.29c-0.05188 17.864-14.183 31.995-32.047 32.047h-319.91c-17.864-0.05188-31.995-14.183-32.047-32.047v-110.29l31.656-150.37a16.002 16.002 0 0 0 0.056641-0.2754c1.9655-10.221 5.7564-16.41 10.637-20.465 4.8804-4.0544 11.522-6.5566 21.65-6.5566z" color="#000000" color-rendering="auto" dominant-baseline="auto" image-rendering="auto" solid-color="#000000" stop-color="#000000" style="font-feature-settings:normal;font-variant-alternates:normal;font-variant-caps:normal;font-variant-east-asian:normal;font-variant-ligatures:normal;font-variant-numeric:normal;font-variant-position:normal;font-variation-settings:normal;inline-size:0;isolation:auto;mix-blend-mode:normal;shape-margin:0;shape-padding:0;text-decoration-color:#000000;text-decoration-line:none;text-decoration-style:solid;text-indent:0;text-orientation:mixed;text-transform:none;white-space:normal"/>
  <path d="m48 256a16 16 0 0 0-16 16 16 16 0 0 0 16 16h144a16 16 0 0 0 16-16 16 16 0 0 0-16-16h-144z" color="#000000" color-rendering="auto" dominant-baseline="auto" image-rendering="auto" solid-color="#000000" stop-color="#000000" style="font-feature-settings:normal;font-variant-alternates:normal;font-variant-caps:normal;font-variant-east-asian:normal;font-variant-ligatures:normal;font-variant-numeric:normal;font-variant-position:normal;font-variation-settings:normal;inline-size:0;isolation:auto;mix-blend-mode:normal;shape-margin:0;shape-padding:0;text-decoration-color:#000000;text-decoration-line:none;text-decoration-style:solid;text-indent:0;text-orientation:mixed;text-transform:none;white-space:normal"/>
  <path d="m320 256a16 16 0 0 0-16 16 16 16 0 0 0 16 16h144a16 16 0 0 0 16-16 16 16 0 0 0-16-16h-144z" color="#000000" color-rendering="auto" dominant-baseline="auto" image-rendering="auto" solid-color="#000000" stop-color="#000000" style="font-feature-settings:normal;font-variant-alternates:normal;font-variant-caps:normal;font-variant-east-asian:normal;font-variant-ligatures:normal;font-variant-numeric:normal;font-variant-position:normal;font-variation-settings:normal;inline-size:0;isolation:auto;mix-blend-mode:normal;shape-margin:0;shape-padding:0;text-decoration-color:#000000;text-decoration-line:none;text-decoration-style:solid;text-indent:0;text-orientation:mixed;text-transform:none;white-space:normal"/>
  <path d="m192 256a16 16 0 0 0-16 16c0 43.993 36.007 80 80 80s80-36.007 80-80a16 16 0 0 0-16-16 16 16 0 0 0-16 16c0 26.699-21.301 48-48 48s-48-21.301-48-48a16 16 0 0 0-16-16z" color="#000000" color-rendering="auto" dominant-baseline="auto" image-rendering="auto" solid-color="#000000" stop-color="#000000" style="font-feature-settings:normal;font-variant-alternates:normal;font-variant-caps:normal;font-variant-east-asian:normal;font-variant-ligatures:normal;font-variant-numeric:normal;font-variant-position:normal;font-variation-settings:normal;inline-size:0;isolation:auto;mix-blend-mode:normal;shape-margin:0;shape-padding:0;text-decoration-color:#000000;text-decoration-line:none;text-decoration-style:solid;text-indent:0;text-orientation:mixed;text-transform:none;white-space:normal"/>
  <path d="m144 128a16 16 0 0 0-16 16 16 16 0 0 0 16 16h224a16 16 0 0 0 16-16 16 16 0 0 0-16-16h-224z" color="#000000" color-rendering="auto" dominant-baseline="auto" image-rendering="auto" solid-color="#000000" stop-color="#000000" style="font-feature-settings:normal;font-variant-alternates:normal;font-variant-caps:normal;font-variant-east-asian:normal;font-variant-ligatures:normal;font-variant-numeric:normal;font-variant-position:normal;font-variation-settings:normal;inline-size:0;isolation:auto;mix-blend-mode:normal;shape-margin:0;shape-padding:0;text-decoration-color:#000000;text-decoration-line:none;text-decoration-style:solid;text-indent:0;text-orientation:mixed;text-transform:none;white-space:normal"/>
  <path d="m128 192a16 16 0 0 0-16 16 16 16 0 0 0 16 16h256a16 16 0 0 0 16-16 16 16 0 0 0-16-16h-256z" color="#000000" color-rendering="auto" dominant-baseline="auto" image-rendering="auto" solid-color="#000000" stop-color="#000000" style="font-feature-settings:normal;font-variant-alternates:normal;font-variant-caps:normal;font-variant-east-asian:normal;font-variant-ligatures:normal;font-variant-numeric:normal;font-variant-position:normal;font-variation-settings:normal;inline-size:0;isolation:auto;mix-blend-mode:normal;shape-margin:0;shape-padding:0;text-decoration-color:#000000;text-decoration-line:none;text-decoration-style:solid;text-indent:0;text-orientation:mixed;text-transform:none;white-space:normal"/>
 </g>
</svg>
