<svg id="SVGRoot" width="512px" height="512px" version="1.1" viewBox="0 0 512 512" xmlns="http://www.w3.org/2000/svg">
 <defs>
  <clipPath id="clipPath5592">
   <rect x="205" y="271" width="105" height="40" d="m 205,271 h 105 v 40 H 205 Z" display="none" style="paint-order:normal"/>
   <path class="powerclip" d="m75.839 106h360.32v300h-360.32zm129.16 165v40h105v-40z" style="paint-order:normal"/>
  </clipPath>
 </defs>
 <path d="m134.99 111c-9.6616 0-17.363 4.3414-22.102 10.865s-6.9127 14.825-7.8691 23.592l-24 220c-2.1625 19.823 15.648 35.543 34.971 35.543h280c19.327 0 37.311-15.733 34.965-35.586l-26-220c-1.0318-8.7307-3.1972-17.009-7.9102-23.531s-12.391-10.883-22.055-10.883zm0 10h240c6.9567 0 10.805 2.3868 13.949 6.7383s5.1671 11.073 6.0859 18.848l19.432 164.41h-123.61c-1.5327-17.875-16.602-32-34.861-32-18.259 0-33.329 14.125-34.861 32h-124.11l17.941-164.46c0.84599-7.7548 2.8614-14.455 6.0176-18.801 3.1562-4.3457 7.0533-6.7422 14.012-6.7422zm120.95 166.12c12.85 0 23.391 11.446 24.862 23.883h-49.633c1.4708-12.437 11.921-23.883 24.771-23.883zm-160.01 33.883h125.77c3.26 15.939 17.418 28 34.293 28s31.033-12.061 34.293-28h125.36l5.3867 45.586c1.555 13.157-11.122 24.414-25.035 24.414h-280c-13.917 0-26.472-11.236-25.029-24.457zm136.05 0h48.02c-3.0087 10.429-12.577 18-24.01 18s-21.001-7.5713-24.01-18z" clip-path="url(#clipPath5592)" color="#000000" color-rendering="auto" dominant-baseline="auto" image-rendering="auto" shape-rendering="auto" solid-color="#000000" stop-color="#000000" style="font-feature-settings:normal;font-variant-alternates:normal;font-variant-caps:normal;font-variant-east-asian:normal;font-variant-ligatures:normal;font-variant-numeric:normal;font-variant-position:normal;font-variation-settings:normal;inline-size:0;isolation:auto;mix-blend-mode:normal;paint-order:normal;shape-margin:0;shape-padding:0;text-decoration-color:#000000;text-decoration-line:none;text-decoration-style:solid;text-indent:0;text-orientation:mixed;text-transform:none;white-space:normal"/>
</svg>
