<svg width="512" height="512" version="1.1" viewBox="0 0 135.47 135.47" xmlns="http://www.w3.org/2000/svg">
 <defs>
  <filter id="filter2709" x="-4.7828e-9" y="-6.027e-9" width="1" height="1" color-interpolation-filters="sRGB">
   <feGaussianBlur stdDeviation="1.9667362e-07"/>
  </filter>
 </defs>
 <g transform="translate(.0015036 .0019018)">
  <rect x="42.995" y="65.881" width="74.083" height="3.7042" filter="url(#filter2709)"/>
  <rect x="42.995" y="34.131" width="74.083" height="3.7042" filter="url(#filter2709)"/>
  <rect x="42.995" y="97.631" width="74.083" height="3.7042" filter="url(#filter2709)"/>
  <g>
   <rect x="18.528" y="28.31" width="2.6459" height="15.346"/>
   <rect x="18.528" y="28.31" width="15.346" height="2.6459"/>
   <rect x="31.223" y="28.31" width="2.6459" height="15.346"/>
   <rect x="18.523" y="41.01" width="15.346" height="2.6459"/>
  </g>
  <g transform="translate(.22548 49.848)">
   <rect x="18.162" y="41.962" width="2.6459" height="15.346"/>
   <rect x="18.162" y="41.962" width="15.346" height="2.6459"/>
   <rect x="30.857" y="41.962" width="2.6459" height="15.346"/>
   <rect x="18.162" y="54.663" width="15.346" height="2.6459"/>
  </g>
  <g transform="translate(.22548 18.098)">
   <rect x="18.162" y="41.962" width="2.6459" height="15.346"/>
   <rect x="18.162" y="41.962" width="15.346" height="2.6459"/>
   <rect x="30.857" y="41.962" width="2.6459" height="15.346"/>
   <rect x="18.162" y="54.663" width="15.346" height="2.6459"/>
  </g>
 </g>
</svg>
