<svg width="512" height="512" version="1.1" viewBox="0 0 512 512" xmlns="http://www.w3.org/2000/svg">
 <title>ionicons-v5-j</title>
 <path d="m256 32c-61.252 0-108.54 50.082-103.96 113.16a16.002 16.002 0 0 0 0 0.00195c4.3892 60.287 49.504 110.84 103.96 110.84 54.456 0 99.49-50.566 103.96-110.82a16.002 16.002 0 0 0 0-0.00195c4.6111-62.25-42.504-113.18-103.96-113.18zm0 32c44.547 0 75.432 33.069 72.043 78.818-3.3737 45.489-38.499 81.182-72.043 81.182-33.546 0-68.731-35.688-72.043-81.16v-0.00195c-3.4115-46.921 27.295-78.838 72.043-78.838z" color="#000000" color-rendering="auto" dominant-baseline="auto" image-rendering="auto" shape-rendering="auto" solid-color="#000000" stop-color="#000000" style="font-feature-settings:normal;font-variant-alternates:normal;font-variant-caps:normal;font-variant-east-asian:normal;font-variant-ligatures:normal;font-variant-numeric:normal;font-variant-position:normal;font-variation-settings:normal;inline-size:0;isolation:auto;mix-blend-mode:normal;shape-margin:0;shape-padding:0;text-decoration-color:#000000;text-decoration-line:none;text-decoration-style:solid;text-indent:0;text-orientation:mixed;text-transform:none;white-space:normal"/>
 <path d="m256 288c-46.443 0-93.176 12.672-131.19 38.012-38.015 25.34-67.219 63.98-76.195 113.75-1.6627 9.2168-0.075951 18.762 5.3379 26.672s15.444 13.568 26.049 13.568h352c10.606 0 20.638-5.6538 26.055-13.564s7.0045-17.459 5.3418-26.676v-0.00196c-8.9813-49.768-38.187-88.406-76.203-113.75-38.016-25.34-84.751-38.012-131.19-38.012zm0 32c40.557 0 81.474 11.328 113.45 32.639 31.971 21.31 55.09 51.971 62.459 92.803 0.24241 1.3438 8.8e-4 2.1669-0.14453 2.5586h-351.51c-0.14588-0.39388-0.38657-1.217-0.14453-2.5586v-0.00196c7.3641-40.831 30.481-71.491 62.451-92.801 31.97-21.31 72.886-32.639 113.44-32.639z" color="#000000" color-rendering="auto" dominant-baseline="auto" image-rendering="auto" shape-rendering="auto" solid-color="#000000" stop-color="#000000" style="font-feature-settings:normal;font-variant-alternates:normal;font-variant-caps:normal;font-variant-east-asian:normal;font-variant-ligatures:normal;font-variant-numeric:normal;font-variant-position:normal;font-variation-settings:normal;inline-size:0;isolation:auto;mix-blend-mode:normal;shape-margin:0;shape-padding:0;text-decoration-color:#000000;text-decoration-line:none;text-decoration-style:solid;text-indent:0;text-orientation:mixed;text-transform:none;white-space:normal"/>
</svg>
