<svg width="512" height="512" version="1.1" viewBox="0 0 512 512" xmlns="http://www.w3.org/2000/svg">
 <title>ionicons-v5-e</title>
 <path d="m255.92 32.004a16.002 16.002 0 0 0-15.137 11.051l-48.406 148.95h-160.38a16.002 16.002 0 0 0-9.0488 29.195l130.02 89.156-50.131 148.53a16.002 16.002 0 0 0 24.549 18.072l128.61-93.195 128.61 93.195a16.002 16.002 0 0 0 24.549-18.072l-50.131-148.53 130.02-89.156a16.002 16.002 0 0 0-9.0488-29.195h-160.38l-48.406-148.95a16.002 16.002 0 0 0-15.297-11.051zm0.08008 67.762 36.783 113.18a16.002 16.002 0 0 0 15.217 11.055h120.38l-97.424 66.805a16.002 16.002 0 0 0-6.1113 18.312l37.979 112.53-97.43-70.602a16.002 16.002 0 0 0-18.777 0l-97.43 70.602 37.979-112.53a16.002 16.002 0 0 0-6.1113-18.312l-97.424-66.805h120.38a16.002 16.002 0 0 0 15.217-11.055l36.783-113.18z" color="#000000" color-rendering="auto" dominant-baseline="auto" image-rendering="auto" shape-rendering="auto" solid-color="#000000" stop-color="#000000" style="font-feature-settings:normal;font-variant-alternates:normal;font-variant-caps:normal;font-variant-east-asian:normal;font-variant-ligatures:normal;font-variant-numeric:normal;font-variant-position:normal;font-variation-settings:normal;inline-size:0;isolation:auto;mix-blend-mode:normal;shape-margin:0;shape-padding:0;text-decoration-color:#000000;text-decoration-line:none;text-decoration-style:solid;text-indent:0;text-orientation:mixed;text-transform:none;white-space:normal"/>
</svg>
