<svg width="512" height="512" version="1.1" viewBox="0 0 512 512" xmlns="http://www.w3.org/2000/svg">
 <title>ionicons-v5-q</title>
 <path d="m96 64c-35.179 0-64 28.821-64 64v288c0 35.179 28.821 64 64 64h320c35.179 0 64-28.821 64-64v-288c0-35.179-28.821-64-64-64h-320zm0 32h320c18.005 0 32 13.995 32 32v288c0 18.005-13.995 32-32 32h-320c-18.005 0-32-13.995-32-32v-288c0-18.005 13.995-32 32-32z" color="#000000" color-rendering="auto" dominant-baseline="auto" image-rendering="auto" shape-rendering="auto" solid-color="#000000" stop-color="#000000" style="font-feature-settings:normal;font-variant-alternates:normal;font-variant-caps:normal;font-variant-east-asian:normal;font-variant-ligatures:normal;font-variant-numeric:normal;font-variant-position:normal;font-variation-settings:normal;inline-size:0;isolation:auto;mix-blend-mode:normal;shape-margin:0;shape-padding:0;text-decoration-color:#000000;text-decoration-line:none;text-decoration-style:solid;text-indent:0;text-orientation:mixed;text-transform:none;white-space:normal"/>
 <g shape-rendering="auto">
  <path d="m397.82 80h-283.64c-36.49 0-66.18 30.15-66.18 67.2v44.8h8c0-16 24-32 40-32h320c16 0 40 16 40 32h8v-44.8c0-37.05-29.69-67.2-66.18-67.2z" color="#000000" color-rendering="auto" dominant-baseline="auto" image-rendering="auto" solid-color="#000000" stop-color="#000000" style="font-feature-settings:normal;font-variant-alternates:normal;font-variant-caps:normal;font-variant-east-asian:normal;font-variant-ligatures:normal;font-variant-numeric:normal;font-variant-position:normal;font-variation-settings:normal;inline-size:0;isolation:auto;mix-blend-mode:normal;shape-margin:0;shape-padding:0;text-decoration-color:#000000;text-decoration-line:none;text-decoration-style:solid;text-indent:0;text-orientation:mixed;text-transform:none;white-space:normal"/>
  <path d="m114.18 79.5c-36.765 0-66.68 30.382-66.68 67.699v45.301h9v-0.5c0-7.75 5.8754-15.656 13.801-21.6 7.9253-5.944 17.866-9.9004 25.699-9.9004h320c7.8333 0 17.774 3.9564 25.699 9.9004s13.801 13.85 13.801 21.6v0.5h9v-45.301c0-37.317-29.914-67.699-66.68-67.699zm0 1h283.64c36.215 0 65.68 29.916 65.68 66.699v44.301h-7.0449c-0.24169-8.0758-6.2434-15.967-14.154-21.9-8.0747-6.056-18.134-10.1-26.301-10.1h-320c-8.1667 0-18.226 4.0436-26.301 10.1-7.9109 5.9332-13.913 13.825-14.154 21.9h-7.0449v-44.301c0-36.783 29.465-66.699 65.68-66.699z" color="#000000" color-rendering="auto" dominant-baseline="auto" image-rendering="auto" solid-color="#000000" stop-color="#000000" style="font-feature-settings:normal;font-variant-alternates:normal;font-variant-caps:normal;font-variant-east-asian:normal;font-variant-ligatures:normal;font-variant-numeric:normal;font-variant-position:normal;font-variation-settings:normal;inline-size:0;isolation:auto;mix-blend-mode:normal;shape-margin:0;shape-padding:0;text-decoration-color:#000000;text-decoration-line:none;text-decoration-style:solid;text-indent:0;text-orientation:mixed;text-transform:none;white-space:normal"/>
 </g>
 <path d="m128 32a16 16 0 0 0-16 16v32a16 16 0 0 0 16 16 16 16 0 0 0 16-16v-32a16 16 0 0 0-16-16z" color="#000000" color-rendering="auto" dominant-baseline="auto" image-rendering="auto" shape-rendering="auto" solid-color="#000000" stop-color="#000000" style="font-feature-settings:normal;font-variant-alternates:normal;font-variant-caps:normal;font-variant-east-asian:normal;font-variant-ligatures:normal;font-variant-numeric:normal;font-variant-position:normal;font-variation-settings:normal;inline-size:0;isolation:auto;mix-blend-mode:normal;shape-margin:0;shape-padding:0;text-decoration-color:#000000;text-decoration-line:none;text-decoration-style:solid;text-indent:0;text-orientation:mixed;text-transform:none;white-space:normal"/>
 <path d="m384 32a16 16 0 0 0-16 16v32a16 16 0 0 0 16 16 16 16 0 0 0 16-16v-32a16 16 0 0 0-16-16z" color="#000000" color-rendering="auto" dominant-baseline="auto" image-rendering="auto" shape-rendering="auto" solid-color="#000000" stop-color="#000000" style="font-feature-settings:normal;font-variant-alternates:normal;font-variant-caps:normal;font-variant-east-asian:normal;font-variant-ligatures:normal;font-variant-numeric:normal;font-variant-position:normal;font-variation-settings:normal;inline-size:0;isolation:auto;mix-blend-mode:normal;shape-margin:0;shape-padding:0;text-decoration-color:#000000;text-decoration-line:none;text-decoration-style:solid;text-indent:0;text-orientation:mixed;text-transform:none;white-space:normal"/>
 <g shape-rendering="auto">
  <path d="m124.57 208h70.86c15.828 0 28.57 12.742 28.57 28.57v70.86c0 15.828-12.742 28.57-28.57 28.57h-70.86c-15.828 0-28.57-12.742-28.57-28.57v-70.86c0-15.828 12.742-28.57 28.57-28.57z" color="#000000" color-rendering="auto" dominant-baseline="auto" image-rendering="auto" solid-color="#000000" stop-color="#000000" style="font-feature-settings:normal;font-variant-alternates:normal;font-variant-caps:normal;font-variant-east-asian:normal;font-variant-ligatures:normal;font-variant-numeric:normal;font-variant-position:normal;font-variation-settings:normal;inline-size:0;isolation:auto;mix-blend-mode:normal;shape-margin:0;shape-padding:0;text-decoration-color:#000000;text-decoration-line:none;text-decoration-style:solid;text-indent:0;text-orientation:mixed;text-transform:none;white-space:normal"/>
  <path d="m124.57 207.5c-16.096 0-29.07 12.974-29.07 29.07v70.859c0 16.096 12.974 29.07 29.07 29.07h70.859c16.096 0 29.07-12.974 29.07-29.07v-70.859c0-16.096-12.974-29.07-29.07-29.07zm0 1h70.859c15.559 0 28.07 12.511 28.07 28.07v70.859c0 15.559-12.511 28.07-28.07 28.07h-70.859c-15.559 0-28.07-12.511-28.07-28.07v-70.859c0-15.559 12.511-28.07 28.07-28.07z" color="#000000" color-rendering="auto" dominant-baseline="auto" image-rendering="auto" solid-color="#000000" stop-color="#000000" style="font-feature-settings:normal;font-variant-alternates:normal;font-variant-caps:normal;font-variant-east-asian:normal;font-variant-ligatures:normal;font-variant-numeric:normal;font-variant-position:normal;font-variation-settings:normal;inline-size:0;isolation:auto;mix-blend-mode:normal;shape-margin:0;shape-padding:0;text-decoration-color:#000000;text-decoration-line:none;text-decoration-style:solid;text-indent:0;text-orientation:mixed;text-transform:none;white-space:normal"/>
 </g>
 <path d="m95.953 144c-35.092 0.10191-63.851 28.861-63.953 63.953a16.002 16.002 0 0 0 0 0.04688v48h32v-47.953c0.051876-17.864 14.183-31.995 32.047-32.047h319.91c17.864 0.05188 31.995 14.183 32.047 32.047v47.953h32v-48a16.002 16.002 0 0 0 0-0.04688c-0.10191-35.092-28.861-63.851-63.953-63.953a16.002 16.002 0 0 0-0.04688 0h-320a16.002 16.002 0 0 0-0.046875 0z" color="#000000" color-rendering="auto" dominant-baseline="auto" image-rendering="auto" shape-rendering="auto" solid-color="#000000" stop-color="#000000" style="font-feature-settings:normal;font-variant-alternates:normal;font-variant-caps:normal;font-variant-east-asian:normal;font-variant-ligatures:normal;font-variant-numeric:normal;font-variant-position:normal;font-variation-settings:normal;inline-size:0;isolation:auto;mix-blend-mode:normal;shape-margin:0;shape-padding:0;text-decoration-color:#000000;text-decoration-line:none;text-decoration-style:solid;text-indent:0;text-orientation:mixed;text-transform:none;white-space:normal"/>
</svg>
